<?xml version="1.0" encoding="utf-8"?>
<!-- Generator: Adobe Illustrator 16.0.4, SVG Export Plug-In . SVG Version: 6.00 Build 0)  -->
<!DOCTYPE svg PUBLIC "-//W3C//DTD SVG 1.1//EN" "http://www.w3.org/Graphics/SVG/1.1/DTD/svg11.dtd">
<svg version="1.1" id="Layer_1" xmlns="http://www.w3.org/2000/svg" xmlns:xlink="http://www.w3.org/1999/xlink" x="0px" y="0px"
	 width="500px" height="400px" viewBox="0 0 500 400" enable-background="new 0 0 500 400" xml:space="preserve">
<g>
	<g>
		<path fill="none" stroke="#FFFFFF" stroke-width="5" stroke-miterlimit="10" d="M10.259,179.556
			c0-57.08,45.987-103.354,102.71-103.354c56.726,0,102.709,46.275,102.709,103.354c0,9.1-1.169,17.926-3.364,26.333
			c0,0-6.341,19.119-17.987,33.138c-11.646,14.019-22.861,29.547-27.605,39.467s-14.449,29.761-15.958,40.113
			c-1.51,10.353-2.069,20.922-2.069,20.922"/>
		<path fill="none" stroke="#FFFFFF" stroke-width="5" stroke-miterlimit="10" d="M148.715,338.071
			c0,30.818-26.432,55.803-59.038,55.803c-32.606,0-59.038-24.984-59.038-55.803c0-2.118,0.125-4.208,0.368-6.265"/>
	</g>
	<g>
		<path fill="none" stroke="#FFFFFF" stroke-width="5" stroke-miterlimit="10" d="M141.479,218.41
			c11.637-6.676,19.75-21.705,19.75-39.175c0-17.68-8.308-32.86-20.169-39.413"/>
		<path fill="none" stroke="#FFFFFF" stroke-width="5" stroke-miterlimit="10" d="M111.302,190.705
			c-2.295-4.878-5.318-9.554-9.071-13.861c-15.035-17.251-37.548-23.692-56.831-18.136"/>
		<path fill="none" stroke="#FFFFFF" stroke-width="5" stroke-miterlimit="10" d="M39.431,188.224
			c4.847-2.014,10.177-3.127,15.77-3.127c22.377,0,40.516,17.814,40.516,39.788c0,0,0.753,12.417-3.613,18.727
			c-4.368,6.307-6.794,8.571-8.734,10.836c-1.941,2.265-3.397,3.72-5.985,7.44c-2.588,3.721-4.206,6.632-4.691,11.808
			s-0.323,8.734,0.324,12.132c0.461,2.421,1.662,6.484,2.313,8.62"/>
		<path fill="none" stroke="#FFFFFF" stroke-width="5" stroke-miterlimit="10" d="M38.727,190.052
			c0-13.764,3.018-27.551,9.023-39.951c5.438-11.229,13.323-21.315,23.167-29.009c10.17-7.949,22.446-13.187,35.289-14.681
			c13.269-1.544,26.885,1.004,38.799,7.009c11.195,5.641,20.771,14.261,28.011,24.457c3.897,5.489,7.294,11.292,9.242,17.761
			c2.118,7.035,3.305,14.188,3.191,21.545c-0.112,7.24-0.832,14.586-2.542,21.63c-1.549,6.383-4.363,12.165-7.99,17.617
			c-3.667,5.511-7.818,10.699-11.749,16.021c-4.359,5.904-8.65,11.868-12.61,18.049c-7.697,12.011-14.941,24.724-20.145,38.028
			c-2.595,6.635-4.865,13.459-5.79,20.546c-0.922,7.059-0.319,14.242-1.708,21.247c-2.256,11.377-8.173,22.536-18.015,29.068
			c-10.327,6.855-23.772,6.247-33.681-1.087c-4.903-3.63-8.76-8.532-11.568-13.92c-1.78-3.413-3.419-7.261-4.04-11.102
			c-0.008-0.052-0.016-0.104-0.023-0.155"/>
	</g>
</g>
<g>
	<path fill="#30BFEF" d="M168.665,334.514l21.501-21.125v11.946h18.295v10.311h-18.295v28.307c0,6.612,2.744,9.918,8.236,9.918
		c4.107,0,8.445-1.361,13.014-4.086v10.687c-4.4,2.474-9.2,3.71-14.397,3.71c-5.24,0-9.599-1.529-13.077-4.589
		c-1.09-0.922-1.991-1.959-2.704-3.113c-0.712-1.151-1.31-2.66-1.792-4.525c-0.482-1.866-0.723-5.417-0.723-10.657v-25.65h-10.059
		V334.514z"/>
	<path fill="#30BFEF" d="M233.199,325.335V338.6l0.629-1.006c5.533-8.928,11.065-13.392,16.598-13.392
		c4.316,0,8.823,2.18,13.518,6.539l-6.036,10.059c-3.982-3.771-7.671-5.658-11.065-5.658c-3.688,0-6.884,1.761-9.586,5.281
		c-2.704,3.521-4.056,7.692-4.056,12.512v30.241h-11.505v-57.841H233.199z"/>
	<path fill="#30BFEF" d="M279.125,301.003c1.887,0,3.499,0.651,4.842,1.949c1.34,1.3,2.012,2.892,2.012,4.778
		c0,1.845-0.672,3.438-2.012,4.777c-1.343,1.343-2.955,2.013-4.842,2.013c-1.761,0-3.311-0.681-4.653-2.044
		c-1.341-1.361-2.011-2.944-2.011-4.746c0-1.761,0.67-3.321,2.011-4.684C275.814,301.685,277.364,301.003,279.125,301.003z
		 M273.467,325.335h11.442v57.841h-11.442V325.335z"/>
	<path fill="#30BFEF" d="M302.983,295.345h11.442v87.831h-11.442V295.345z"/>
	<path fill="#30BFEF" d="M332.5,295.345h11.442v87.831H332.5V295.345z"/>
	<path fill="#30BFEF" d="M361.263,295.345h11.441v34.139c4.945-3.604,10.227-5.407,15.843-5.407c7.334,0,13.33,2.767,17.982,8.299
		c4.651,5.533,6.978,12.637,6.978,21.313c0,9.305-2.777,16.714-8.33,22.225c-5.555,5.512-12.982,8.268-22.287,8.268
		c-3.731,0-7.661-0.398-11.788-1.195c-4.129-0.794-7.409-1.801-9.839-3.017V295.345z M372.704,340.423v31.309
		c3.897,1.175,7.9,1.762,12.008,1.762c5.071,0,9.211-1.803,12.418-5.407c3.205-3.604,4.809-8.236,4.809-13.895
		c0-5.742-1.498-10.415-4.495-14.02s-6.906-5.407-11.725-5.407C381.443,334.765,377.104,336.65,372.704,340.423z"/>
	<path fill="#30BFEF" d="M433.342,301.003c1.886,0,3.498,0.651,4.84,1.949c1.342,1.3,2.014,2.892,2.014,4.778
		c0,1.845-0.672,3.438-2.014,4.777c-1.342,1.343-2.954,2.013-4.84,2.013c-1.761,0-3.312-0.681-4.652-2.044
		c-1.343-1.361-2.012-2.944-2.012-4.746c0-1.761,0.669-3.321,2.012-4.684C430.03,301.685,431.581,301.003,433.342,301.003z
		 M427.683,325.335h11.442v57.841h-11.442V325.335z"/>
	<path fill="#30BFEF" d="M448.838,334.514l21.502-21.125v11.946h18.295v10.311H470.34v28.307c0,6.612,2.744,9.918,8.236,9.918
		c4.106,0,8.444-1.361,13.014-4.086v10.687c-4.4,2.474-9.201,3.71-14.397,3.71c-5.24,0-9.599-1.529-13.077-4.589
		c-1.091-0.922-1.992-1.959-2.703-3.113c-0.714-1.151-1.312-2.66-1.792-4.525c-0.482-1.866-0.724-5.417-0.724-10.657v-25.65h-10.059
		V334.514z"/>
</g>
<g>
	<path fill="#3ABFEF" d="M153.221,58.882c-0.837-0.037-1.626-0.37-2.225-0.937c-1.324-1.262-1.329-3.338-0.011-4.628
		c0.679-0.661,1.593-1.003,2.571-0.961c0.841,0.038,1.637,0.372,2.238,0.944c0.635,0.605,0.99,1.42,0.995,2.293
		c0.004,0.874-0.346,1.694-0.98,2.312C155.131,58.57,154.186,58.924,153.221,58.882z"/>
	<path fill="#3ABFEF" d="M160.892,61.85c-0.838-0.038-1.627-0.371-2.225-0.938c-1.324-1.261-1.33-3.337-0.012-4.627
		c0.678-0.661,1.594-1.003,2.571-0.961c0.841,0.037,1.637,0.372,2.238,0.944c0.636,0.605,0.991,1.42,0.996,2.293
		c0.003,0.873-0.346,1.694-0.981,2.312C162.802,61.538,161.856,61.892,160.892,61.85z"/>
	<path fill="#3ABFEF" d="M168.659,65.861c-0.838-0.037-1.627-0.371-2.225-0.938c-1.325-1.26-1.33-3.337-0.013-4.627
		c0.679-0.661,1.595-1.004,2.572-0.961c0.841,0.037,1.637,0.372,2.239,0.943c0.636,0.605,0.99,1.42,0.995,2.294
		c0.004,0.873-0.346,1.694-0.98,2.311C170.568,65.549,169.624,65.903,168.659,65.861z"/>
	<path fill="#3ABFEF" d="M175.229,70.265c-0.826-0.14-1.569-0.568-2.092-1.204c-1.159-1.415-0.908-3.476,0.557-4.594
		c0.756-0.572,1.705-0.8,2.671-0.638c0.83,0.141,1.579,0.571,2.105,1.212c0.556,0.679,0.808,1.531,0.706,2.398
		c-0.104,0.867-0.552,1.639-1.258,2.174C177.163,70.19,176.182,70.424,175.229,70.265z"/>
	<path fill="#3ABFEF" d="M182.214,75.075c-0.827-0.14-1.569-0.568-2.094-1.204c-1.159-1.415-0.908-3.476,0.559-4.594
		c0.754-0.572,1.704-0.8,2.67-0.638c0.83,0.14,1.579,0.57,2.105,1.211c0.556,0.679,0.808,1.532,0.706,2.399
		c-0.104,0.867-0.552,1.639-1.258,2.174C184.148,75,183.165,75.235,182.214,75.075z"/>
	<path fill="#3ABFEF" d="M188.538,79.459c-0.827-0.14-1.569-0.567-2.093-1.204c-1.16-1.415-0.909-3.476,0.558-4.594
		c0.755-0.572,1.704-0.8,2.67-0.637c0.83,0.14,1.579,0.569,2.105,1.211c0.556,0.679,0.808,1.532,0.706,2.399
		c-0.104,0.867-0.552,1.639-1.258,2.174C190.471,79.383,189.488,79.619,188.538,79.459z"/>
	<path fill="#3ABFEF" d="M195.522,84.359c-0.826-0.14-1.568-0.568-2.092-1.204c-1.159-1.414-0.909-3.476,0.558-4.594
		c0.755-0.572,1.705-0.8,2.67-0.637c0.83,0.14,1.579,0.57,2.105,1.211c0.556,0.679,0.808,1.532,0.706,2.398
		c-0.104,0.867-0.552,1.639-1.258,2.173C197.457,84.283,196.475,84.519,195.522,84.359z"/>
	<path fill="#3ABFEF" d="M202.166,89.926c-0.827-0.141-1.569-0.568-2.092-1.204c-1.159-1.415-0.909-3.476,0.557-4.595
		c0.755-0.572,1.705-0.799,2.67-0.637c0.831,0.14,1.579,0.57,2.105,1.212c0.557,0.679,0.808,1.532,0.705,2.398
		c-0.104,0.867-0.551,1.639-1.257,2.173C204.099,89.85,203.118,90.085,202.166,89.926z"/>
	<path fill="#3ABFEF" d="M207.593,96.255c-0.825-0.14-1.568-0.567-2.092-1.204c-1.159-1.415-0.908-3.476,0.557-4.594
		c0.755-0.572,1.705-0.8,2.67-0.637c0.83,0.14,1.579,0.57,2.106,1.211c0.556,0.679,0.808,1.532,0.705,2.398
		c-0.104,0.867-0.552,1.64-1.258,2.174C209.528,96.18,208.546,96.415,207.593,96.255z"/>
	<path fill="#3ABFEF" d="M212.872,103.006c-0.827-0.14-1.569-0.567-2.092-1.204c-1.159-1.415-0.909-3.476,0.557-4.595
		c0.755-0.571,1.705-0.799,2.67-0.636c0.831,0.14,1.579,0.569,2.105,1.212c0.557,0.678,0.809,1.531,0.706,2.398
		c-0.103,0.867-0.552,1.639-1.257,2.173C214.806,102.93,213.825,103.166,212.872,103.006z"/>
	<path fill="#3ABFEF" d="M218.305,109.333c-0.827-0.14-1.569-0.567-2.093-1.203c-1.159-1.415-0.909-3.476,0.558-4.595
		c0.755-0.571,1.705-0.799,2.67-0.637c0.83,0.141,1.579,0.57,2.105,1.212c0.556,0.679,0.808,1.532,0.706,2.398
		c-0.104,0.867-0.552,1.639-1.258,2.173C220.239,109.257,219.256,109.493,218.305,109.333z"/>
	<path fill="#3ABFEF" d="M222.797,116.71c-0.827-0.14-1.569-0.567-2.092-1.203c-1.159-1.415-0.909-3.477,0.558-4.595
		c0.754-0.572,1.704-0.8,2.67-0.637c0.83,0.141,1.579,0.57,2.105,1.212c0.556,0.678,0.808,1.531,0.706,2.398
		c-0.104,0.866-0.552,1.64-1.258,2.174C224.731,116.635,223.749,116.87,222.797,116.71z"/>
	<path fill="#3ABFEF" d="M227.128,123.987c-0.827-0.14-1.57-0.568-2.093-1.204c-1.159-1.415-0.908-3.476,0.558-4.595
		c0.754-0.571,1.704-0.799,2.67-0.637c0.83,0.141,1.579,0.57,2.105,1.212c0.556,0.679,0.808,1.532,0.705,2.398
		c-0.104,0.867-0.552,1.639-1.258,2.174C229.061,123.912,228.079,124.146,227.128,123.987z"/>
	<path fill="#3ABFEF" d="M231.329,132.131c-0.827-0.14-1.569-0.567-2.093-1.204c-1.159-1.414-0.909-3.476,0.558-4.594
		c0.755-0.572,1.705-0.8,2.669-0.637c0.831,0.14,1.579,0.57,2.105,1.212c0.557,0.678,0.809,1.532,0.706,2.398
		s-0.552,1.639-1.257,2.173C233.263,132.056,232.28,132.291,231.329,132.131z"/>
	<path fill="#3ABFEF" d="M234.541,139.775c-0.827-0.139-1.569-0.567-2.093-1.204c-1.159-1.414-0.909-3.476,0.558-4.594
		c0.755-0.572,1.705-0.8,2.67-0.637c0.83,0.141,1.579,0.57,2.105,1.212c0.557,0.678,0.808,1.531,0.706,2.398
		c-0.104,0.867-0.552,1.64-1.258,2.174C236.475,139.7,235.492,139.935,234.541,139.775z"/>
	<path fill="#3ABFEF" d="M236.944,147.404c-0.826-0.139-1.569-0.567-2.092-1.204c-1.16-1.414-0.908-3.476,0.557-4.594
		c0.755-0.572,1.705-0.8,2.67-0.637c0.83,0.141,1.578,0.571,2.105,1.212c0.556,0.679,0.808,1.532,0.706,2.398
		c-0.104,0.867-0.552,1.639-1.258,2.174C238.878,147.33,237.896,147.564,236.944,147.404z"/>
	<path fill="#3ABFEF" d="M239.16,155.573c-0.827-0.14-1.57-0.568-2.092-1.203c-1.159-1.415-0.909-3.476,0.557-4.594
		c0.755-0.572,1.705-0.8,2.671-0.638c0.83,0.141,1.578,0.57,2.105,1.213c0.556,0.678,0.808,1.531,0.705,2.398
		c-0.104,0.866-0.552,1.639-1.257,2.173C241.093,155.498,240.111,155.733,239.16,155.573z"/>
	<path fill="#3ABFEF" d="M240.99,163.911c-0.827-0.14-1.57-0.568-2.093-1.204c-1.159-1.415-0.909-3.476,0.558-4.595
		c0.755-0.571,1.704-0.799,2.67-0.637c0.83,0.141,1.578,0.57,2.105,1.212c0.556,0.679,0.808,1.532,0.706,2.399
		c-0.104,0.867-0.553,1.639-1.258,2.173C242.923,163.835,241.941,164.07,240.99,163.911z"/>
	<path fill="#3ABFEF" d="M242.114,171.96c-0.827-0.14-1.568-0.567-2.092-1.204c-1.159-1.414-0.909-3.476,0.558-4.594
		c0.754-0.572,1.705-0.8,2.669-0.637c0.831,0.14,1.579,0.571,2.105,1.212c0.557,0.678,0.809,1.531,0.706,2.398
		c-0.104,0.867-0.551,1.639-1.257,2.173C244.049,171.885,243.066,172.12,242.114,171.96z"/>
	<path fill="#3ABFEF" d="M242.432,180.041c-0.827-0.14-1.57-0.567-2.093-1.203c-1.159-1.414-0.909-3.476,0.559-4.594
		c0.754-0.572,1.704-0.8,2.669-0.637c0.83,0.14,1.579,0.57,2.105,1.212c0.556,0.679,0.808,1.532,0.706,2.398
		c-0.104,0.867-0.552,1.639-1.258,2.173C244.365,179.966,243.383,180.202,242.432,180.041z"/>
</g>
<g>
	<path fill="#3ABFEF" d="M161.119,34.615c-0.838-0.037-1.627-0.371-2.226-0.938c-1.324-1.261-1.329-3.337-0.012-4.628
		c0.679-0.66,1.594-1.003,2.572-0.96c0.841,0.037,1.637,0.372,2.239,0.944c0.635,0.604,0.99,1.42,0.995,2.293
		c0.003,0.873-0.346,1.694-0.98,2.312C163.028,34.302,162.083,34.656,161.119,34.615z"/>
	<path fill="#3ABFEF" d="M169.22,37.566c-0.838-0.038-1.627-0.371-2.225-0.938c-1.325-1.261-1.33-3.338-0.012-4.627
		c0.679-0.661,1.593-1.004,2.571-0.961c0.841,0.038,1.637,0.372,2.239,0.944c0.635,0.604,0.99,1.42,0.995,2.293
		c0.003,0.873-0.346,1.694-0.98,2.312C171.129,37.253,170.184,37.607,169.22,37.566z"/>
	<path fill="#3ABFEF" d="M177.898,41.542c-0.838-0.038-1.626-0.371-2.225-0.938c-1.324-1.261-1.329-3.337-0.011-4.628
		c0.679-0.66,1.594-1.003,2.572-0.961c0.84,0.038,1.637,0.372,2.238,0.944c0.635,0.604,0.99,1.42,0.994,2.293
		c0.004,0.873-0.345,1.694-0.98,2.312C179.808,41.229,178.862,41.583,177.898,41.542z"/>
	<path fill="#3ABFEF" d="M184.854,45.617c-0.838-0.037-1.627-0.37-2.225-0.938c-1.325-1.261-1.329-3.338-0.012-4.627
		c0.679-0.661,1.594-1.003,2.571-0.961c0.841,0.037,1.637,0.371,2.239,0.944c0.635,0.605,0.99,1.42,0.995,2.293
		c0.003,0.874-0.346,1.694-0.98,2.312C186.763,45.304,185.818,45.658,184.854,45.617z"/>
	<path fill="#3ABFEF" d="M191.808,49.659c-0.837-0.036-1.627-0.37-2.225-0.936c-1.325-1.262-1.33-3.338-0.013-4.628
		c0.679-0.66,1.594-1.004,2.572-0.961c0.841,0.036,1.637,0.372,2.238,0.943c0.636,0.605,0.99,1.421,0.995,2.293
		c0.003,0.873-0.346,1.694-0.98,2.312C193.717,49.348,192.772,49.701,191.808,49.659z"/>
	<path fill="#3ABFEF" d="M198.767,53.826c-0.838-0.037-1.627-0.371-2.225-0.937c-1.324-1.261-1.329-3.337-0.011-4.628
		c0.679-0.661,1.594-1.003,2.571-0.961c0.841,0.037,1.637,0.373,2.239,0.944c0.635,0.605,0.99,1.42,0.995,2.294
		c0.004,0.873-0.346,1.694-0.982,2.312C200.677,53.513,199.731,53.868,198.767,53.826z"/>
	<path fill="#3ABFEF" d="M204.747,58.958c-0.838-0.037-1.627-0.37-2.225-0.937c-1.324-1.261-1.329-3.337-0.012-4.628
		c0.679-0.66,1.594-1.002,2.571-0.96c0.842,0.036,1.637,0.372,2.24,0.943c0.635,0.605,0.99,1.421,0.994,2.294
		c0.004,0.872-0.346,1.694-0.98,2.311C206.656,58.645,205.71,59,204.747,58.958z"/>
	<path fill="#3ABFEF" d="M211.747,64.17c-0.837-0.037-1.627-0.37-2.225-0.938c-1.324-1.26-1.329-3.337-0.012-4.627
		c0.679-0.66,1.594-1.004,2.572-0.96c0.84,0.037,1.637,0.372,2.238,0.943c0.635,0.605,0.99,1.421,0.995,2.294
		c0.003,0.873-0.347,1.694-0.981,2.312C213.657,63.858,212.71,64.212,211.747,64.17z"/>
	<path fill="#3ABFEF" d="M217.942,69.431c-0.837-0.037-1.626-0.37-2.224-0.937c-1.325-1.261-1.33-3.338-0.012-4.627
		c0.679-0.661,1.593-1.004,2.571-0.961c0.841,0.038,1.637,0.372,2.238,0.944c0.635,0.605,0.99,1.42,0.995,2.293
		c0.004,0.874-0.346,1.695-0.981,2.312C219.852,69.119,218.907,69.473,217.942,69.431z"/>
	<path fill="#3ABFEF" d="M224.145,74.853c-0.838-0.037-1.627-0.371-2.225-0.937c-1.325-1.261-1.33-3.338-0.012-4.628
		c0.678-0.66,1.593-1.003,2.571-0.961c0.84,0.037,1.636,0.372,2.238,0.944c0.635,0.605,0.99,1.42,0.995,2.293
		c0.004,0.873-0.346,1.695-0.981,2.312C226.054,74.54,225.108,74.894,224.145,74.853z"/>
	<path fill="#3ABFEF" d="M229.714,80.847c-0.838-0.037-1.627-0.37-2.225-0.936c-1.325-1.262-1.33-3.338-0.012-4.628
		c0.679-0.661,1.594-1.003,2.571-0.96c0.841,0.037,1.637,0.372,2.239,0.943c0.636,0.606,0.99,1.421,0.995,2.294
		c0.004,0.874-0.346,1.695-0.98,2.312C231.624,80.535,230.678,80.889,229.714,80.847z"/>
	<path fill="#3ABFEF" d="M234.612,87.323c-0.838-0.037-1.627-0.37-2.225-0.938c-1.325-1.26-1.33-3.338-0.013-4.627
		c0.679-0.661,1.594-1.003,2.572-0.961c0.841,0.037,1.637,0.373,2.239,0.944c0.636,0.605,0.99,1.42,0.995,2.294
		c0.003,0.873-0.346,1.694-0.981,2.311C236.521,87.011,235.575,87.365,234.612,87.323z"/>
	<path fill="#3ABFEF" d="M240.524,93.628c-0.837-0.037-1.626-0.37-2.225-0.938c-1.324-1.261-1.329-3.338-0.011-4.627
		c0.679-0.661,1.593-1.003,2.571-0.961c0.841,0.037,1.637,0.373,2.239,0.944c0.635,0.605,0.991,1.42,0.995,2.293
		c0.003,0.873-0.345,1.694-0.981,2.312C242.435,93.316,241.489,93.67,240.524,93.628z"/>
	<path fill="#3ABFEF" d="M245.026,101.221c-0.837-0.037-1.627-0.37-2.225-0.937c-1.325-1.261-1.329-3.337-0.011-4.628
		c0.679-0.661,1.593-1.003,2.572-0.96c0.84,0.037,1.636,0.372,2.237,0.943c0.637,0.605,0.99,1.421,0.995,2.294
		c0.004,0.872-0.345,1.694-0.979,2.312C246.936,100.909,245.991,101.263,245.026,101.221z"/>
	<path fill="#3ABFEF" d="M249.727,108.159c-0.838-0.036-1.627-0.37-2.225-0.936c-1.325-1.262-1.33-3.338-0.012-4.628
		c0.678-0.66,1.593-1.003,2.572-0.96c0.84,0.037,1.635,0.372,2.237,0.943c0.636,0.605,0.99,1.421,0.996,2.293
		c0.003,0.874-0.347,1.695-0.981,2.312C251.636,107.847,250.69,108.201,249.727,108.159z"/>
	<path fill="#3ABFEF" d="M253.415,115.569c-0.837-0.038-1.626-0.371-2.225-0.938c-1.325-1.261-1.329-3.338-0.012-4.628
		c0.679-0.66,1.595-1.003,2.571-0.961c0.841,0.038,1.637,0.372,2.238,0.944c0.637,0.604,0.99,1.42,0.995,2.293
		c0.003,0.873-0.345,1.695-0.98,2.312C255.325,115.256,254.38,115.61,253.415,115.569z"/>
	<path fill="#3ABFEF" d="M257.112,123.193c-0.838-0.037-1.627-0.37-2.226-0.936c-1.324-1.262-1.328-3.338-0.012-4.628
		c0.68-0.661,1.595-1.004,2.571-0.961c0.843,0.037,1.638,0.372,2.24,0.943c0.634,0.605,0.989,1.421,0.995,2.294
		c0.002,0.873-0.347,1.695-0.982,2.312C259.021,122.881,258.077,123.235,257.112,123.193z"/>
	<path fill="#3ABFEF" d="M259.688,131.078c-0.837-0.038-1.627-0.37-2.225-0.937c-1.324-1.262-1.329-3.338-0.012-4.628
		c0.679-0.661,1.594-1.003,2.572-0.961c0.84,0.037,1.637,0.372,2.237,0.943c0.637,0.605,0.99,1.421,0.995,2.293
		c0.004,0.873-0.346,1.695-0.98,2.312C261.598,130.766,260.651,131.12,259.688,131.078z"/>
	<path fill="#3ABFEF" d="M262.217,138.749c-0.837-0.037-1.626-0.371-2.225-0.937c-1.325-1.261-1.328-3.338-0.011-4.628
		c0.679-0.66,1.594-1.003,2.571-0.96c0.841,0.037,1.637,0.372,2.238,0.944c0.635,0.605,0.99,1.42,0.995,2.293
		s-0.347,1.695-0.981,2.312C264.127,138.436,263.182,138.79,262.217,138.749z"/>
	<path fill="#3ABFEF" d="M264.805,146.048c-0.838-0.037-1.627-0.371-2.225-0.938c-1.324-1.26-1.329-3.338-0.012-4.627
		c0.679-0.661,1.593-1.003,2.571-0.961c0.841,0.037,1.638,0.372,2.238,0.944c0.636,0.605,0.991,1.42,0.995,2.293
		c0.005,0.873-0.347,1.694-0.98,2.312C266.715,145.735,265.769,146.089,264.805,146.048z"/>
	<path fill="#3ABFEF" d="M266.213,153.978c-0.837-0.036-1.627-0.37-2.226-0.937c-1.324-1.261-1.328-3.338-0.01-4.627
		c0.678-0.661,1.593-1.003,2.57-0.961c0.841,0.037,1.637,0.372,2.239,0.944c0.635,0.604,0.99,1.42,0.994,2.293
		c0.004,0.874-0.346,1.695-0.98,2.312C268.122,153.666,267.177,154.02,266.213,153.978z"/>
	<path fill="#3ABFEF" d="M267.495,161.914c-0.837-0.038-1.626-0.371-2.225-0.938c-1.324-1.261-1.329-3.337-0.013-4.628
		c0.681-0.66,1.595-1.003,2.572-0.961c0.842,0.038,1.637,0.372,2.239,0.944c0.635,0.604,0.99,1.42,0.995,2.293
		c0.003,0.873-0.347,1.694-0.981,2.312C269.405,161.601,268.46,161.956,267.495,161.914z"/>
	<path fill="#3ABFEF" d="M268.829,179.389c-0.838-0.037-1.627-0.37-2.225-0.937c-1.325-1.261-1.329-3.338-0.013-4.628
		c0.681-0.66,1.594-1.002,2.572-0.96c0.841,0.037,1.638,0.372,2.238,0.943c0.636,0.605,0.99,1.421,0.994,2.294
		c0.005,0.872-0.345,1.694-0.979,2.312C270.738,179.076,269.793,179.43,268.829,179.389z"/>
	<path fill="#3ABFEF" d="M268.534,170.983c-0.838-0.037-1.628-0.371-2.226-0.937c-1.324-1.261-1.329-3.338-0.012-4.628
		c0.68-0.661,1.595-1.003,2.572-0.961c0.84,0.037,1.637,0.372,2.238,0.944c0.635,0.605,0.989,1.42,0.994,2.293
		c0.005,0.874-0.345,1.695-0.98,2.312C270.443,170.67,269.498,171.024,268.534,170.983z"/>
</g>
<g>
	<path fill="#3ABFEF" d="M169.885,10.529c-0.838-0.037-1.626-0.37-2.225-0.937c-1.324-1.261-1.329-3.337-0.011-4.628
		c0.679-0.661,1.593-1.003,2.571-0.961c0.841,0.037,1.637,0.373,2.239,0.944c0.636,0.605,0.99,1.421,0.995,2.294
		c0.004,0.873-0.345,1.694-0.98,2.312C171.795,10.217,170.849,10.571,169.885,10.529z"/>
	<path fill="#3ABFEF" d="M177.556,13.497c-0.838-0.037-1.627-0.37-2.225-0.937c-1.324-1.261-1.329-3.338-0.012-4.628
		c0.679-0.661,1.594-1.003,2.572-0.961c0.841,0.037,1.637,0.372,2.239,0.944c0.635,0.605,0.99,1.42,0.995,2.293
		c0.003,0.873-0.347,1.694-0.981,2.312C179.465,13.185,178.52,13.539,177.556,13.497z"/>
	<path fill="#3ABFEF" d="M185.762,16.443c-0.837-0.037-1.627-0.37-2.225-0.937c-1.324-1.261-1.329-3.338-0.012-4.628
		c0.68-0.661,1.594-1.003,2.572-0.96c0.841,0.037,1.637,0.372,2.238,0.943c0.636,0.605,0.99,1.421,0.995,2.294
		c0.004,0.873-0.346,1.693-0.98,2.312C187.671,16.131,186.727,16.485,185.762,16.443z"/>
	<path fill="#3ABFEF" d="M193.001,19.428c-0.836-0.037-1.626-0.37-2.225-0.937c-1.324-1.261-1.329-3.338-0.012-4.628
		c0.68-0.661,1.594-1.004,2.572-0.961c0.84,0.037,1.636,0.372,2.238,0.943c0.636,0.605,0.991,1.421,0.995,2.294
		c0.004,0.873-0.346,1.694-0.981,2.312C194.911,19.115,193.965,19.469,193.001,19.428z"/>
	<path fill="#3ABFEF" d="M199.972,23.902c-0.837-0.037-1.627-0.37-2.225-0.937c-1.324-1.261-1.329-3.338-0.012-4.627
		c0.679-0.661,1.595-1.003,2.572-0.961c0.841,0.037,1.637,0.372,2.239,0.943c0.635,0.606,0.99,1.421,0.995,2.294
		c0.003,0.873-0.346,1.694-0.981,2.311C201.882,23.59,200.937,23.944,199.972,23.902z"/>
	<path fill="#3ABFEF" d="M206.927,27.946c-0.838-0.037-1.627-0.37-2.225-0.937c-1.325-1.262-1.33-3.338-0.012-4.628
		c0.678-0.661,1.594-1.004,2.571-0.961c0.842,0.037,1.637,0.372,2.239,0.944c0.635,0.605,0.99,1.421,0.995,2.293
		c0.003,0.874-0.346,1.695-0.981,2.312C208.836,27.634,207.892,27.988,206.927,27.946z"/>
	<path fill="#3ABFEF" d="M213.903,32.543c-0.837-0.037-1.627-0.371-2.225-0.937c-1.324-1.261-1.328-3.338-0.011-4.628
		c0.679-0.661,1.593-1.004,2.571-0.961c0.841,0.037,1.637,0.372,2.238,0.944c0.635,0.605,0.99,1.421,0.995,2.294
		c0.004,0.873-0.346,1.694-0.981,2.312C215.813,32.231,214.867,32.585,213.903,32.543z"/>
	<path fill="#3ABFEF" d="M220.899,37.664c-0.838-0.037-1.627-0.37-2.225-0.937c-1.324-1.261-1.329-3.338-0.011-4.628
		c0.678-0.661,1.594-1.003,2.571-0.961c0.841,0.037,1.637,0.372,2.239,0.943c0.636,0.605,0.99,1.421,0.995,2.294
		c0.004,0.873-0.345,1.694-0.98,2.312C222.809,37.352,221.864,37.706,220.899,37.664z"/>
	<path fill="#3ABFEF" d="M227.898,42.847c-0.837-0.037-1.626-0.37-2.225-0.937c-1.324-1.261-1.329-3.338-0.012-4.628
		c0.679-0.661,1.594-1.003,2.571-0.961c0.842,0.037,1.637,0.373,2.239,0.944c0.635,0.605,0.99,1.421,0.995,2.293
		c0.004,0.873-0.347,1.695-0.981,2.312C229.809,42.535,228.863,42.889,227.898,42.847z"/>
	<path fill="#3ABFEF" d="M233.929,48.007c-0.838-0.038-1.627-0.371-2.225-0.938c-1.324-1.261-1.329-3.337-0.011-4.627
		c0.679-0.661,1.593-1.004,2.571-0.962c0.84,0.038,1.637,0.372,2.239,0.944c0.635,0.604,0.99,1.42,0.994,2.293
		c0.004,0.873-0.346,1.694-0.98,2.312C235.838,47.694,234.893,48.049,233.929,48.007z"/>
	<path fill="#3ABFEF" d="M239.788,54.313c-0.838-0.036-1.627-0.37-2.225-0.936c-1.324-1.261-1.329-3.338-0.012-4.628
		c0.679-0.66,1.594-1.003,2.571-0.961c0.842,0.038,1.638,0.372,2.239,0.944c0.636,0.605,0.99,1.42,0.995,2.293
		c0.003,0.874-0.346,1.694-0.981,2.312C241.698,54.001,240.752,54.355,239.788,54.313z"/>
	<path fill="#3ABFEF" d="M245.606,59.572c-0.837-0.037-1.627-0.37-2.225-0.937c-1.324-1.261-1.329-3.337-0.012-4.628
		c0.68-0.661,1.594-1.004,2.572-0.96c0.84,0.037,1.637,0.372,2.239,0.943c0.635,0.605,0.989,1.421,0.995,2.294
		c0.004,0.873-0.347,1.694-0.981,2.312C247.516,59.26,246.569,59.614,245.606,59.572z"/>
	<path fill="#3ABFEF" d="M251.465,65.88c-0.838-0.037-1.627-0.37-2.225-0.937c-1.324-1.261-1.33-3.338-0.012-4.628
		c0.679-0.66,1.593-1.003,2.571-0.96c0.841,0.037,1.638,0.372,2.239,0.943c0.634,0.605,0.99,1.421,0.994,2.294
		c0.005,0.872-0.346,1.694-0.98,2.311C253.375,65.567,252.43,65.921,251.465,65.88z"/>
	<path fill="#3ABFEF" d="M256.678,72.213c-0.839-0.038-1.627-0.371-2.226-0.938c-1.324-1.261-1.328-3.338-0.012-4.628
		c0.68-0.66,1.594-1.003,2.572-0.961c0.84,0.038,1.637,0.372,2.238,0.944c0.636,0.604,0.99,1.42,0.994,2.293
		c0.005,0.873-0.345,1.695-0.98,2.312C258.587,71.9,257.641,72.254,256.678,72.213z"/>
	<path fill="#3ABFEF" d="M262.105,78.536c-0.838-0.037-1.627-0.37-2.225-0.937c-1.324-1.261-1.329-3.337-0.013-4.627
		c0.681-0.661,1.595-1.004,2.572-0.961c0.841,0.038,1.637,0.373,2.239,0.944c0.635,0.605,0.99,1.421,0.993,2.294
		c0.005,0.873-0.345,1.694-0.979,2.312C264.017,78.225,263.07,78.578,262.105,78.536z"/>
	<path fill="#3ABFEF" d="M274.29,100.073c-0.836-0.037-1.626-0.37-2.224-0.937c-1.325-1.261-1.33-3.338-0.012-4.627
		c0.679-0.661,1.594-1.003,2.571-0.961c0.841,0.037,1.636,0.372,2.238,0.944c0.635,0.605,0.99,1.421,0.995,2.293
		c0.004,0.873-0.346,1.694-0.98,2.312C276.2,99.761,275.256,100.115,274.29,100.073z"/>
	<path fill="#3ABFEF" d="M277.963,107.051c-0.839-0.036-1.627-0.37-2.226-0.936c-1.324-1.262-1.329-3.338-0.012-4.628
		c0.679-0.66,1.595-1.003,2.571-0.96c0.842,0.037,1.637,0.372,2.239,0.943c0.636,0.605,0.99,1.421,0.994,2.293
		c0.004,0.873-0.345,1.695-0.98,2.312C279.872,106.739,278.928,107.093,277.963,107.051z"/>
	<path fill="#3ABFEF" d="M281.651,114.46c-0.838-0.036-1.627-0.37-2.225-0.937c-1.324-1.261-1.329-3.337-0.012-4.627
		c0.678-0.66,1.593-1.003,2.57-0.961c0.842,0.036,1.638,0.372,2.239,0.944c0.636,0.604,0.99,1.42,0.995,2.293
		c0.004,0.873-0.347,1.694-0.981,2.312C283.561,114.148,282.615,114.502,281.651,114.46z"/>
	<path fill="#3ABFEF" d="M285.348,122.085c-0.838-0.037-1.626-0.37-2.225-0.937c-1.324-1.261-1.329-3.338-0.012-4.628
		c0.68-0.661,1.594-1.003,2.572-0.96c0.84,0.036,1.637,0.372,2.237,0.943c0.637,0.605,0.99,1.421,0.995,2.293
		c0.004,0.873-0.345,1.695-0.98,2.312C287.257,121.773,286.312,122.127,285.348,122.085z"/>
	<path fill="#3ABFEF" d="M287.385,129.991c-0.837-0.037-1.626-0.37-2.225-0.937c-1.324-1.261-1.329-3.338-0.011-4.627
		c0.678-0.661,1.594-1.004,2.57-0.961c0.842,0.037,1.637,0.372,2.239,0.944c0.635,0.605,0.989,1.42,0.995,2.293
		c0.004,0.874-0.347,1.695-0.98,2.312C289.294,129.679,288.35,130.033,287.385,129.991z"/>
	<path fill="#3ABFEF" d="M289.392,138.545c-0.838-0.037-1.627-0.37-2.224-0.937c-1.325-1.261-1.33-3.338-0.013-4.628
		c0.678-0.661,1.594-1.004,2.571-0.961c0.841,0.037,1.637,0.372,2.238,0.944c0.636,0.605,0.99,1.42,0.995,2.293
		c0.004,0.873-0.347,1.694-0.979,2.312C291.301,138.233,290.356,138.587,289.392,138.545z"/>
	<path fill="#3ABFEF" d="M291.429,146.451c-0.837-0.036-1.627-0.37-2.225-0.936c-1.324-1.262-1.329-3.338-0.013-4.628
		c0.68-0.66,1.595-1.003,2.572-0.96c0.842,0.037,1.637,0.372,2.239,0.943c0.635,0.606,0.99,1.421,0.995,2.294
		c0.003,0.874-0.348,1.695-0.982,2.312C293.339,146.139,292.393,146.493,291.429,146.451z"/>
	<path fill="#3ABFEF" d="M293.41,154.359c-0.838-0.037-1.627-0.371-2.226-0.937c-1.323-1.261-1.328-3.337-0.012-4.627
		c0.68-0.661,1.595-1.003,2.572-0.961c0.842,0.037,1.637,0.372,2.239,0.944c0.635,0.605,0.99,1.42,0.994,2.293
		c0.004,0.873-0.346,1.694-0.981,2.312C295.32,154.047,294.375,154.401,293.41,154.359z"/>
	<path fill="#3ABFEF" d="M294.353,161.876c-0.837-0.037-1.627-0.371-2.225-0.937c-1.324-1.261-1.329-3.338-0.013-4.627
		c0.68-0.661,1.595-1.004,2.572-0.961c0.842,0.037,1.637,0.372,2.239,0.944c0.635,0.604,0.99,1.42,0.995,2.293
		c0.004,0.873-0.347,1.694-0.981,2.312C296.263,161.564,295.317,161.918,294.353,161.876z"/>
	<path fill="#3ABFEF" d="M294.676,178.375c-0.837-0.037-1.626-0.371-2.225-0.937c-1.324-1.261-1.328-3.338-0.011-4.628
		c0.679-0.66,1.593-1.003,2.57-0.961c0.842,0.037,1.638,0.372,2.239,0.944c0.635,0.605,0.99,1.42,0.995,2.293
		c0.004,0.874-0.346,1.695-0.98,2.312C296.586,178.062,295.641,178.416,294.676,178.375z"/>
	<path fill="#3ABFEF" d="M294.683,170.28c-0.838-0.037-1.627-0.37-2.225-0.937c-1.325-1.261-1.33-3.338-0.013-4.627
		c0.68-0.661,1.595-1.004,2.572-0.961c0.842,0.037,1.637,0.372,2.238,0.944c0.636,0.605,0.991,1.421,0.995,2.293
		c0.003,0.873-0.346,1.694-0.981,2.312C296.592,169.969,295.647,170.322,294.683,170.28z"/>
	<path fill="#3ABFEF" d="M270.594,92.448c-0.838-0.037-1.627-0.37-2.225-0.936c-1.325-1.261-1.33-3.338-0.013-4.628
		c0.68-0.661,1.595-1.004,2.572-0.961c0.84,0.037,1.637,0.372,2.237,0.944c0.637,0.605,0.99,1.42,0.996,2.293
		c0.004,0.872-0.346,1.694-0.98,2.312C272.504,92.136,271.559,92.49,270.594,92.448z"/>
	<path fill="#3ABFEF" d="M266.899,84.885c-0.838-0.037-1.627-0.37-2.226-0.937c-1.324-1.261-1.328-3.338-0.011-4.628
		c0.678-0.661,1.594-1.003,2.571-0.961c0.841,0.037,1.637,0.373,2.238,0.944c0.636,0.605,0.99,1.42,0.995,2.293
		c0.003,0.873-0.347,1.695-0.981,2.312C268.809,84.573,267.862,84.927,266.899,84.885z"/>
</g>
</svg>
